<?xml version="1.0" standalone="no"?>
<!DOCTYPE svg PUBLIC "-//W3C//DTD SVG 20010904//EN"
 "http://www.w3.org/TR/2001/REC-SVG-20010904/DTD/svg10.dtd">
<svg version="1.0" xmlns="http://www.w3.org/2000/svg"
 width="500.000000pt" height="500.000000pt" viewBox="0 0 500.000000 500.000000"
 preserveAspectRatio="xMidYMid meet">

<g transform="translate(0.000000,500.000000) scale(0.100000,-0.100000)"
fill="#000000" stroke="none">
<path d="M0 2500 l0 -2500 2500 0 2500 0 0 2500 0 2500 -2500 0 -2500 0 0
-2500z m2721 1551 c313 -83 545 -316 631 -636 24 -88 36 -430 20 -581 -16
-155 -70 -251 -184 -327 -57 -37 -465 -218 -561 -249 -72 -22 -175 -23 -248
-2 -56 17 -437 177 -523 221 -68 34 -161 130 -191 196 -14 29 -29 77 -35 107
-13 70 -13 462 1 553 55 378 353 677 734 737 89 13 268 4 356 -19z m1049
-2311 l0 -340 -24 0 c-25 0 -35 20 -36 70 l-1 25 -21 -29 c-43 -58 -157 -91
-225 -65 -135 50 -192 201 -125 330 65 125 233 157 327 63 l35 -35 0 161 0
160 35 0 35 0 0 -340z m-1157 296 c76 -37 83 -48 55 -81 -23 -26 -23 -26 -48
-8 -64 49 -177 62 -252 30 -61 -26 -125 -92 -148 -153 -25 -69 -25 -119 0
-187 55 -146 230 -212 371 -139 54 28 59 29 73 13 24 -27 19 -47 -16 -69 -140
-84 -312 -61 -427 57 -117 120 -124 315 -16 446 96 118 273 157 408 91z
m-1471 -3 c60 -27 134 -101 161 -161 18 -38 22 -65 22 -142 -1 -83 -4 -101
-28 -147 -36 -69 -88 -120 -156 -152 -54 -25 -63 -26 -231 -26 l-175 0 -3 315
c-1 173 0 321 3 328 4 11 41 13 182 10 157 -3 184 -6 225 -25z m862 -14 c50
-39 24 -109 -40 -109 -67 0 -85 86 -24 117 33 17 33 16 64 -8z m1066 -179
c191 -53 223 -317 51 -418 -38 -22 -58 -27 -116 -27 -78 1 -113 15 -165 67
-44 43 -63 91 -63 158 -1 152 145 261 293 220z m1093 -1 c77 -21 146 -111 147
-190 0 -20 -6 -41 -13 -48 -8 -6 -79 -12 -185 -13 l-172 -3 22 -44 c14 -28 36
-51 58 -63 48 -25 125 -24 175 3 37 20 39 20 52 3 20 -28 16 -39 -27 -63 -114
-64 -263 -21 -323 93 -30 57 -30 155 1 213 51 97 158 142 265 112z m-2598 -64
c22 -35 42 -64 45 -64 3 -1 24 29 48 64 l42 65 55 0 c34 0 55 -4 55 -11 0 -6
-29 -53 -65 -105 l-66 -94 76 -106 c41 -58 72 -110 69 -115 -3 -5 -31 -9 -62
-9 l-58 0 -46 75 c-33 55 -48 72 -55 63 -5 -7 -27 -41 -47 -75 l-37 -63 -60 0
c-42 0 -59 4 -59 13 0 7 28 54 63 103 35 49 66 95 71 102 5 8 -14 45 -53 102
-85 124 -85 120 -14 120 l58 0 40 -65z m455 -155 l0 -220 -55 0 -55 0 0 220 0
220 55 0 55 0 0 -220z"/>
<path d="M2435 3865 c-39 -38 -35 -94 10 -136 19 -19 35 -41 35 -50 0 -19 -63
-79 -83 -79 -38 0 -137 -62 -189 -118 -85 -92 -101 -142 -106 -329 l-4 -153
74 0 c90 0 110 -12 143 -86 l24 -54 160 0 161 0 21 43 c12 23 32 56 45 74 23
30 28 32 97 35 l72 3 0 150 c0 150 0 151 -33 217 -44 91 -109 153 -202 196
-139 64 -160 96 -100 152 40 37 42 99 5 135 -34 35 -96 35 -130 0z m316 -581
c44 -39 30 -114 -25 -140 -32 -16 -36 -16 -72 2 -47 23 -64 66 -43 110 26 53
97 67 140 28z m-377 -5 c36 -28 37 -89 1 -124 -53 -54 -145 -16 -145 60 0 74
84 111 144 64z"/>
<path d="M1959 3239 c-116 -18 -189 -103 -189 -221 1 -120 95 -218 210 -218
l40 0 0 219 c0 121 -3 222 -7 224 -5 2 -29 0 -54 -4z"/>
<path d="M2980 3020 l0 -223 56 6 c68 7 123 40 161 99 24 36 28 51 28 118 0
67 -4 82 -28 118 -39 59 -96 94 -163 100 l-54 4 0 -222z"/>
<path d="M2788 2878 c-7 -13 -20 -39 -29 -58 -32 -71 -28 -70 -252 -70 -111 0
-208 4 -216 9 -8 5 -28 35 -45 67 l-31 59 -55 0 -55 0 0 -97 c0 -82 3 -101 21
-125 44 -60 61 -63 374 -63 318 0 333 3 377 69 20 30 23 47 23 132 l0 99 -50
0 c-41 0 -51 -4 -62 -22z"/>
<path d="M3462 1763 c-49 -24 -75 -68 -79 -132 -13 -212 294 -234 315 -23 11
124 -121 212 -236 155z"/>
<path d="M860 1735 l0 -215 90 0 c130 0 188 28 232 114 23 44 27 125 9 179 -7
19 -31 53 -55 75 -49 45 -106 62 -211 62 l-65 0 0 -215z"/>
<path d="M2924 1761 c-53 -33 -79 -78 -79 -142 0 -95 66 -159 163 -159 54 0
100 25 136 73 15 21 21 43 21 87 0 66 -18 99 -75 138 -43 29 -122 30 -166 3z"/>
<path d="M4065 1780 c-61 -13 -85 -34 -110 -93 l-15 -37 150 0 c167 0 170 2
130 67 -30 49 -95 76 -155 63z"/>
</g>
</svg>
